<svg width="235" height="167" viewBox="0 0 235 167" fill="none" xmlns="http://www.w3.org/2000/svg">
<rect width="235" height="167" fill="white"/>
<g clip-path="url(#clip0_151_727)">
<path d="M147.069 47.5512C147.075 51.4234 146.182 55.2529 144.45 58.7878C144.363 58.9712 144.272 59.1563 144.172 59.3381C142.889 61.8051 141.21 64.0838 139.191 66.0992C138.449 65.5457 137.477 64.8006 137.088 64.5035C133.807 61.9452 130.64 59.2748 128.192 55.9876C127.941 55.6516 127.491 55.3642 127.703 54.913C127.946 54.3984 128.532 54.4779 129.025 54.4584C132.227 54.3318 135.186 53.6614 137.301 51.2118C140.792 47.1681 141.185 40.3356 138.041 36.0679C136.129 33.4738 133.262 32.081 129.937 31.8278C126.495 31.5632 123.018 31.685 119.554 31.6298C112.352 31.5113 105.258 30.5843 98.2237 29.2062C97.9123 29.1428 96.5886 28.8815 95.0764 28.4805C98.5905 25.1337 102.973 22.6497 107.819 21.2584C108.456 21.0766 109.098 20.9143 109.753 20.7714C114.195 19.7922 118.823 19.7452 123.288 20.634C127.753 21.5229 131.939 23.3244 135.531 25.9029C139.123 28.4814 142.027 31.7698 144.024 35.5204C146.021 39.271 147.06 43.3862 147.062 47.5561L147.069 47.5512Z" fill="black"/>
<path d="M137.086 64.5034C137.476 64.8054 138.447 65.5456 139.189 66.0992C136.495 68.7891 133.243 70.9648 129.621 72.5C125.999 74.0353 122.08 74.8998 118.089 75.0433C114.099 75.1869 110.117 74.6067 106.374 73.3363C102.631 72.066 99.201 70.1307 96.2834 67.6426C93.3658 65.1545 91.0181 62.163 89.3764 58.8413C87.7348 55.5196 86.8316 51.9338 86.7194 48.2914C86.6071 44.6491 87.288 41.0226 88.7225 37.622C90.157 34.2214 92.3166 31.1142 95.0764 28.4805C96.5886 28.8814 97.9123 29.1428 98.2237 29.2061C105.258 30.5843 112.352 31.5112 119.554 31.6297C123.018 31.6849 126.493 31.5631 129.937 31.8277C133.262 32.081 136.129 33.4738 138.034 36.0711C141.178 40.3355 140.785 47.1713 137.294 51.215C135.179 53.6694 132.227 54.3399 129.017 54.4616C128.525 54.4811 127.939 54.4016 127.695 54.9161C127.484 55.3674 127.934 55.6548 128.185 55.9908C130.638 59.2747 133.805 61.9451 137.086 64.5034Z" fill="black"/>
<path d="M155.965 78.9266C154.911 79.6311 153.783 80.2512 152.812 81.0369C150.905 82.5677 148.898 82.4492 146.813 81.4996C141.744 79.1977 137.323 76.0468 133.01 72.7499C132.515 72.37 132.085 71.8912 131.466 71.6736C131.326 71.6242 131.18 71.5898 131.031 71.5714C130.799 71.2743 130.544 70.9923 130.268 70.7272C124.072 65.4234 118.314 59.7077 113.044 53.6272C111.206 51.5169 109.447 49.3401 108.162 46.8824C107.603 45.8159 108.02 45.4506 109.215 45.5188C110.069 45.5659 110.925 45.5496 111.779 45.5788C117.254 45.7639 122.726 45.9587 128.204 46.1356C129 46.16 129.836 46.2233 130.498 45.6779C131.46 44.8889 132.124 42.1163 131.565 40.9979C130.873 39.6278 129.489 39.3956 128.021 39.3827C120.983 39.3112 113.946 39.2203 106.908 39.1814C104.426 39.1668 104.371 39.2219 104.497 41.4995C104.805 46.9911 105.161 52.4812 105.499 57.9712C105.693 61.0831 105.815 64.2015 106.105 67.3069C106.338 69.7971 107.237 70.7272 109.639 70.2402C110.63 70.0357 110.822 70.5211 110.838 71.3165C110.856 72.1639 110.011 73.7369 109.63 74.3066C109.587 74.3742 109.537 74.4382 109.482 74.4982C107.385 76.542 104.833 77.3812 101.891 76.4186C98.8215 75.4121 97.5956 73.0583 97.1313 70.2857C97.0566 69.8458 96.9658 69.0357 96.884 68.203C96.7666 67.0261 96.6669 65.8021 96.6456 65.4823C96.4499 62.5603 96.2364 59.6286 96.046 56.7002C95.6439 50.5684 95.2507 44.436 94.8664 38.3032C94.8237 37.6425 94.797 36.9704 93.8452 36.8568C93.1602 36.7772 91.1764 36.4964 89.3653 36.1766C88.0309 35.9461 86.7944 35.6896 86.241 35.4802C85.3657 35.1442 84.4619 34.9023 83.6221 34.4591C82.7325 33.9835 82.3981 33.352 82.4247 32.4332C82.4852 30.5112 82.5511 28.5844 82.4603 26.6656C82.3696 24.7469 83.4015 23.5927 85.2269 22.8492C87.9241 21.7453 90.801 21.3606 93.6939 21.0879C99.0292 20.6116 104.396 20.5058 109.749 20.7714C109.094 20.9142 108.452 21.0765 107.815 21.2583L107.139 21.2973C103.323 21.4596 99.5154 21.7453 95.7329 22.2356C93.9982 22.4596 92.2546 22.7615 90.6996 23.5878C89.1446 24.4141 88.9045 25.4903 90.2264 26.5633C91.1533 27.3149 93.2509 27.9951 95.0728 28.4805C96.5851 28.8814 97.9088 29.1428 98.2201 29.2061C105.258 30.5843 112.352 31.5112 119.554 31.6297C123.018 31.6849 126.493 31.5631 129.937 31.8277C133.262 32.081 136.129 33.4738 138.034 36.0711C141.178 40.3355 140.785 47.1713 137.294 51.215C135.179 53.6694 132.227 54.3399 129.017 54.4616C128.525 54.4811 127.939 54.4016 127.695 54.9162C127.484 55.3674 127.934 55.6548 128.185 55.9908C130.638 59.278 133.805 61.9484 137.081 64.5067C137.47 64.8086 138.442 65.5489 139.184 66.1024C139.586 66.3995 139.92 66.6446 140.073 66.7388C142.448 68.2695 144.816 69.8052 147.243 71.2646C148.743 72.1704 150.239 73.1038 151.921 73.7352C152.632 73.9982 153.399 74.2336 154.032 73.6606C154.666 73.0875 154.522 72.396 154.168 71.7434C153.725 70.9318 153.314 70.0844 152.776 69.3182C150.447 66.0001 147.672 62.9873 144.92 59.963C144.711 59.7325 144.546 59.3689 144.165 59.3413C144.261 59.1595 144.356 58.9744 144.443 58.791C146.919 60.6676 148.827 63.0116 150.833 65.2745C152.568 67.2225 154.214 69.25 155.885 71.2483C156.728 72.2201 157.348 73.337 157.708 74.5323C158.277 76.503 157.778 77.7172 155.965 78.9266Z" fill="#D41830"/>
<path d="M51.4051 92.7651V99.6431H45.589V127.139H35.7929V99.6431H30V92.7651H51.4051Z" fill="#D41830"/>
<path d="M58.4025 92.7651H65.3413C69.9671 92.7651 73.0966 92.9275 74.7299 93.2521C76.3632 93.5768 77.6969 94.4085 78.7312 95.7472C79.7619 97.0848 80.2773 99.2184 80.2773 102.148C80.2773 104.821 79.9132 106.618 79.1849 107.539C78.4566 108.46 77.022 109.012 74.8811 109.195C76.8192 109.628 78.1239 110.215 78.7953 110.958C79.4666 111.7 79.8817 112.375 80.0407 112.984C80.2044 113.599 80.2856 115.294 80.2844 118.068V127.139H71.1751V115.712C71.1751 113.873 71.0162 112.733 70.6983 112.294C70.3804 111.854 69.5466 111.638 68.1968 111.644V127.139H58.4025V92.7651ZM68.1968 98.6448V106.287C69.2975 106.287 70.0685 106.149 70.5097 105.873C70.9509 105.597 71.1716 104.702 71.1716 103.187V101.299C71.1716 100.208 70.9587 99.4932 70.5328 99.1545C70.107 98.8158 69.3284 98.6459 68.1968 98.6448Z" fill="#D41830"/>
<path d="M98.624 92.7651V127.139H88.8386V92.7651H98.624Z" fill="#D41830"/>
<path d="M107.321 92.7651H123.653V99.6431H117.117V106.159H123.228V112.691H117.117V120.248H124.306V127.139H107.321V92.7651Z" fill="#D41830"/>
<path d="M152.638 103.166H143.541V100.619C143.541 99.4285 143.422 98.671 143.185 98.3463C142.952 98.0216 142.564 97.8593 142.021 97.8593C141.754 97.8485 141.488 97.9041 141.252 98.0201C141.017 98.1362 140.82 98.3084 140.683 98.5184C140.381 98.9567 140.23 99.6222 140.23 100.515C140.23 101.661 140.4 102.527 140.74 103.112C141.081 103.698 142.004 104.396 143.51 105.208C147.869 107.568 150.615 109.506 151.748 111.021C152.881 112.536 153.447 114.977 153.447 118.344C153.447 120.792 153.133 122.596 152.504 123.758C151.875 124.919 150.662 125.893 148.864 126.68C147.063 127.465 144.969 127.858 142.582 127.858C139.962 127.858 137.724 127.405 135.869 126.499C134.014 125.594 132.8 124.44 132.229 123.039C131.654 121.638 131.366 119.65 131.368 117.074V114.82H140.465V119.003C140.465 120.29 140.593 121.118 140.849 121.487C141.105 121.856 141.559 122.039 142.21 122.037C142.499 122.051 142.787 121.993 143.043 121.87C143.298 121.747 143.513 121.563 143.663 121.337C143.981 120.87 144.14 120.176 144.14 119.256C144.14 117.234 143.838 115.911 143.233 115.287C142.628 114.664 141.1 113.624 138.65 112.167C136.214 110.695 134.6 109.627 133.81 108.961C133.02 108.296 132.368 107.376 131.853 106.202C131.334 105.027 131.074 103.527 131.074 101.702C131.074 99.0687 131.442 97.144 132.179 95.9276C132.916 94.7112 134.106 93.7594 135.75 93.0722C137.396 92.3871 139.382 92.0441 141.706 92.043C144.251 92.043 146.418 92.418 148.209 93.1679C150 93.9179 151.186 94.8627 151.768 96.0022C152.349 97.1418 152.639 99.0768 152.639 101.807L152.638 103.166Z" fill="#D41830"/>
<path d="M181.017 92.7651V99.6431H175.201V127.139H165.415V99.6431H159.614V92.7651H181.017Z" fill="#D41830"/>
<path d="M188.016 92.7651H204.358V99.6431H197.81V106.159H203.929V112.691H197.81V120.248H205V127.139H188.016V92.7651Z" fill="#D41830"/>
<path d="M38.4866 140.125H35.1418V138.086C35.1418 137.494 35.1044 137.124 35.0332 136.976C34.989 136.899 34.9197 136.837 34.835 136.797C34.7503 136.758 34.6542 136.743 34.56 136.755C34.286 136.755 34.1098 136.845 34.0369 137.023C33.9639 137.202 33.9248 137.59 33.9248 138.184V143.637C33.9248 144.206 33.9622 144.58 34.0369 144.753C34.0773 144.841 34.1482 144.914 34.2385 144.961C34.3288 145.008 34.4336 145.027 34.5368 145.015C34.6384 145.025 34.7411 145.006 34.8293 144.959C34.9176 144.912 34.9867 144.839 35.0261 144.753C35.102 144.578 35.1406 144.168 35.1418 143.525V142.049H38.4866V142.507C38.4866 143.721 38.3923 144.582 38.2037 145.091C38.0151 145.6 37.6 146.045 36.9583 146.427C36.2436 146.827 35.4157 147.026 34.5778 147C33.598 147 32.7903 146.838 32.1545 146.513C31.5577 146.233 31.104 145.751 30.8896 145.171C30.6832 144.597 30.58 143.735 30.58 142.585V139.151C30.5687 138.516 30.6002 137.881 30.6743 137.249C30.7489 136.805 30.9454 136.386 31.2454 136.03C31.5841 135.621 32.0361 135.302 32.5549 135.106C33.1642 134.872 33.8206 134.757 34.4817 134.768C35.4673 134.768 36.2804 134.942 36.9209 135.289C37.5614 135.637 37.9825 136.07 38.1841 136.588C38.3858 137.108 38.4866 137.915 38.4866 139.01V140.125Z" fill="black"/>
<path d="M47.3326 141.889C47.3326 143.068 47.3017 143.904 47.2401 144.395C47.1788 144.892 46.9729 145.364 46.6438 145.764C46.3147 146.164 45.8743 146.476 45.3684 146.668C44.7641 146.895 44.1146 147.006 43.4611 146.992C42.8266 147.001 42.1962 146.897 41.6055 146.685C41.0927 146.497 40.6444 146.187 40.3069 145.787C39.9694 145.388 39.755 144.913 39.6857 144.413C39.6076 143.568 39.5762 142.721 39.5915 141.874V139.88C39.5915 138.702 39.6217 137.867 39.6822 137.376C39.7442 136.879 39.9503 136.407 40.2794 136.007C40.6084 135.608 41.0484 135.296 41.5539 135.103C42.1582 134.876 42.8076 134.765 43.4611 134.778C44.0959 134.769 44.7265 134.874 45.3168 135.087C45.8305 135.274 46.2797 135.584 46.6174 135.984C46.9551 136.383 47.1689 136.859 47.2365 137.359C47.3164 138.203 47.3484 139.05 47.3326 139.897V141.889ZM43.986 138.032C43.986 137.486 43.9522 137.135 43.8863 136.984C43.8552 136.911 43.7982 136.848 43.7242 136.807C43.6503 136.765 43.5634 136.747 43.4771 136.756C43.3986 136.752 43.3204 136.768 43.2503 136.8C43.1801 136.832 43.1204 136.881 43.0768 136.941C42.9843 137.064 42.9381 137.428 42.9381 138.032V143.513C42.9381 144.195 42.9683 144.616 43.0288 144.775C43.0592 144.853 43.1179 144.919 43.1952 144.963C43.2725 145.007 43.3638 145.025 43.454 145.015C43.5509 145.023 43.648 145 43.7281 144.95C43.8082 144.899 43.8661 144.825 43.8917 144.739C43.9545 144.555 43.986 144.117 43.986 143.426V138.032Z" fill="black"/>
<path d="M56.0505 135.015V146.755H53.1166L51.3766 141.424V146.761H48.5798V135.015H51.3766L53.2518 140.301V135.015H56.0505Z" fill="black"/>
<path d="M64.4819 138.569H61.3737V137.699C61.3737 137.293 61.3346 137.033 61.2545 136.923C61.2099 136.866 61.1497 136.821 61.08 136.793C61.0104 136.764 60.9337 136.753 60.8578 136.76C60.7663 136.757 60.6754 136.776 60.5949 136.815C60.5144 136.855 60.4472 136.914 60.4005 136.986C60.2819 137.196 60.2283 137.432 60.2457 137.668C60.2282 137.971 60.2891 138.274 60.4236 138.552C60.534 138.75 60.8489 138.991 61.3684 139.27C62.8581 140.076 63.7963 140.738 64.183 141.255C64.5697 141.773 64.763 142.606 64.763 143.757C64.763 144.594 64.6557 145.211 64.441 145.606C64.2275 146.003 63.813 146.335 63.1956 146.604C62.5225 146.883 61.7891 147.02 61.0499 147.005C60.2559 147.026 59.4685 146.867 58.7584 146.542C58.125 146.232 57.7098 145.838 57.5129 145.361C57.316 144.883 57.2188 144.202 57.2212 143.317V142.549H60.3294V143.978C60.3294 144.417 60.3721 144.7 60.4592 144.825C60.5116 144.891 60.5823 144.944 60.6642 144.977C60.7461 145.011 60.8362 145.024 60.9254 145.015C61.0242 145.02 61.1226 145 61.21 144.957C61.2975 144.915 61.3706 144.852 61.4218 144.775C61.5449 144.556 61.6008 144.311 61.5837 144.065C61.5837 143.374 61.4805 142.921 61.2741 142.708C61.0677 142.495 60.5458 142.14 59.7084 141.643C59.1318 141.311 58.5796 140.945 58.0556 140.547C57.7574 140.283 57.5282 139.961 57.3848 139.604C57.19 139.112 57.0994 138.59 57.118 138.067C57.118 137.168 57.2443 136.512 57.4952 136.095C57.7744 135.657 58.2031 135.315 58.7157 135.121C59.3568 134.872 60.0491 134.752 60.7457 134.768C61.5081 134.749 62.2661 134.88 62.9678 135.153C63.5799 135.41 63.9849 135.734 64.183 136.127C64.3811 136.52 64.4807 137.181 64.4819 138.111V138.569Z" fill="black"/>
<path d="M72.5486 135.015V137.366H70.5649V146.757H67.2147V137.366H65.2363V135.015H72.5486Z" fill="black"/>
<path d="M73.3101 135.015H75.6782C77.2581 135.015 78.3256 135.069 78.8807 135.177C79.4404 135.288 79.9306 135.594 80.2471 136.03C80.6029 136.486 80.7808 137.215 80.7808 138.215C80.7808 139.128 80.6563 139.742 80.4072 140.057C80.1581 140.37 79.6688 140.56 78.9376 140.622C79.5995 140.773 80.0442 140.973 80.272 141.224C80.4683 141.423 80.6136 141.659 80.6972 141.916C80.7518 142.132 80.7796 142.711 80.7808 143.653V146.75H77.6815V142.854C77.6815 142.224 77.6281 141.836 77.5196 141.685C77.4111 141.534 77.1264 141.461 76.6656 141.461V146.755H73.3101V135.015ZM76.6567 137.023V139.638C76.9293 139.659 77.2028 139.61 77.4467 139.497C77.5973 139.403 77.6726 139.097 77.6726 138.58V137.931C77.6726 137.557 77.6015 137.314 77.4556 137.197C77.3097 137.08 77.0428 137.023 76.6567 137.023Z" fill="black"/>
<path d="M89.682 135.015V142.861C89.6976 143.487 89.6655 144.113 89.5859 144.736C89.5004 145.142 89.3067 145.522 89.0219 145.844C88.7026 146.229 88.2754 146.527 87.7854 146.708C87.21 146.913 86.5956 147.013 85.9778 147C85.281 147.013 84.5888 146.894 83.9442 146.653C83.4216 146.467 82.965 146.153 82.624 145.747C82.3453 145.4 82.1678 144.995 82.1081 144.568C82.0547 144.155 82.028 143.286 82.028 141.961V135.015H85.3746V143.818C85.3548 144.145 85.3853 144.473 85.4654 144.792C85.492 144.861 85.5429 144.919 85.6099 144.958C85.677 144.996 85.7564 145.014 85.8354 145.007C85.923 145.015 86.0112 144.997 86.0856 144.954C86.16 144.911 86.2161 144.846 86.2446 144.77C86.3051 144.607 86.3354 144.242 86.3354 143.658V135.015H89.682Z" fill="black"/>
<path d="M98.7895 140.125H95.4429V138.087C95.4429 137.494 95.4073 137.123 95.3361 136.976C95.2919 136.899 95.2226 136.837 95.1379 136.797C95.0531 136.758 94.9571 136.743 94.8629 136.755C94.5871 136.755 94.4127 136.845 94.338 137.023C94.2633 137.202 94.2277 137.59 94.2277 138.177V143.63C94.2277 144.2 94.2651 144.573 94.338 144.747C94.379 144.835 94.4502 144.907 94.5408 144.955C94.6313 145.002 94.7363 145.021 94.8397 145.008C94.9413 145.019 95.0438 144.999 95.132 144.952C95.2202 144.905 95.2893 144.833 95.329 144.747C95.4061 144.572 95.444 144.162 95.4429 143.518V142.043H98.7895V142.5C98.7895 143.715 98.6952 144.576 98.5066 145.085C98.318 145.593 97.9028 146.039 97.2612 146.421C96.5465 146.821 95.7186 147.02 94.8806 146.994C93.8997 146.994 93.092 146.831 92.4574 146.507C91.8606 146.226 91.4073 145.744 91.1942 145.163C90.9855 144.589 90.8817 143.727 90.8829 142.577V139.151C90.8711 138.516 90.9032 137.881 90.9789 137.249C91.0526 136.804 91.2478 136.384 91.5465 136.027C91.8858 135.618 92.3384 135.299 92.8577 135.103C93.4667 134.87 94.1225 134.756 94.7828 134.769C95.7702 134.769 96.5815 134.942 97.2238 135.29C97.8661 135.637 98.2913 136.07 98.487 136.588C98.6827 137.106 98.7895 137.914 98.7895 139.01V140.125Z" fill="black"/>
<path d="M106.728 135.015V137.366H104.741V146.757H101.396V137.366H99.4175V135.015H106.728Z" fill="black"/>
<path d="M110.836 135.015V146.755H107.491V135.015H110.836Z" fill="black"/>
<path d="M119.824 141.889C119.824 143.068 119.794 143.904 119.734 144.395C119.672 144.891 119.465 145.364 119.136 145.763C118.807 146.163 118.367 146.475 117.862 146.668C117.258 146.895 116.608 147.005 115.955 146.992C115.32 147.001 114.69 146.897 114.099 146.685C113.586 146.498 113.137 146.188 112.799 145.788C112.462 145.388 112.248 144.913 112.179 144.413C112.101 143.568 112.07 142.721 112.085 141.874V139.88C112.085 138.702 112.115 137.867 112.176 137.376C112.238 136.879 112.444 136.407 112.773 136.007C113.102 135.608 113.542 135.296 114.048 135.103C114.652 134.876 115.301 134.765 115.955 134.778C116.59 134.769 117.22 134.874 117.81 135.087C118.324 135.274 118.773 135.584 119.111 135.984C119.449 136.383 119.663 136.859 119.73 137.359C119.808 138.203 119.84 139.05 119.824 139.897V141.889ZM116.48 138.032C116.48 137.486 116.446 137.135 116.38 136.984C116.349 136.911 116.292 136.848 116.218 136.807C116.144 136.765 116.057 136.747 115.971 136.756C115.892 136.752 115.814 136.768 115.743 136.8C115.673 136.832 115.613 136.881 115.569 136.941C115.476 137.064 115.43 137.428 115.43 138.032V143.513C115.43 144.195 115.46 144.616 115.521 144.775C115.551 144.853 115.61 144.919 115.687 144.963C115.764 145.007 115.856 145.025 115.946 145.015C116.043 145.023 116.14 145 116.22 144.95C116.3 144.899 116.358 144.825 116.384 144.739C116.448 144.555 116.48 144.117 116.48 143.426V138.032Z" fill="black"/>
<path d="M128.542 135.015V146.755H125.61L123.87 141.424V146.761H121.072V135.015H123.87L125.746 140.301V135.015H128.542Z" fill="black"/>
<path d="M140.566 140.125H137.221V138.087C137.221 137.494 137.186 137.123 137.114 136.976C137.07 136.9 137.001 136.837 136.916 136.798C136.831 136.758 136.735 136.743 136.641 136.755C136.365 136.755 136.191 136.845 136.116 137.023C136.042 137.202 136.006 137.59 136.006 138.184V143.637C136.006 144.206 136.042 144.58 136.116 144.754C136.166 144.833 136.238 144.899 136.325 144.945C136.412 144.991 136.51 145.016 136.611 145.016C136.711 145.016 136.81 144.991 136.897 144.945C136.984 144.899 137.056 144.833 137.105 144.754C137.181 144.578 137.22 144.169 137.221 143.525V142.049H140.566V142.507C140.566 143.721 140.472 144.583 140.285 145.091C140.097 145.6 139.682 146.045 139.039 146.427C138.325 146.827 137.497 147.027 136.659 147C135.679 147 134.871 146.838 134.234 146.513C133.637 146.232 133.184 145.75 132.971 145.169C132.764 144.596 132.661 143.734 132.661 142.583V139.151C132.649 138.516 132.681 137.881 132.757 137.249C132.83 136.804 133.025 136.384 133.325 136.027C133.664 135.618 134.117 135.299 134.636 135.103C135.245 134.87 135.901 134.756 136.561 134.769C137.547 134.769 138.36 134.942 139.002 135.29C139.579 135.571 140.027 136.032 140.265 136.588C140.466 137.108 140.566 137.915 140.566 139.01V140.125Z" fill="black"/>
<path d="M149.46 135.015V146.755H146.113V141.823H145.112V146.755H141.767V135.015H145.112V139.213H146.113V135.015H149.46Z" fill="black"/>
<path d="M150.805 135.015H156.383V137.366H154.148V139.59H156.239V141.823H154.148V144.404H156.603V146.755H150.805V135.015Z" fill="black"/>
<path d="M167.885 135.015V146.755H164.964V138.828L163.793 146.755H161.722L160.494 139.01V146.755H157.566V135.015H161.894C162.023 135.722 162.155 136.553 162.291 137.51L162.766 140.497L163.537 135.015H167.885Z" fill="black"/>
<path d="M172.578 135.015V146.755H169.232V135.015H172.578Z" fill="black"/>
<path d="M181.732 140.126H178.382V138.087C178.382 137.494 178.346 137.123 178.273 136.976C178.23 136.899 178.161 136.837 178.076 136.797C177.992 136.758 177.896 136.743 177.802 136.756C177.526 136.756 177.352 136.845 177.277 137.023C177.202 137.202 177.165 137.59 177.165 138.184V143.637C177.165 144.207 177.202 144.58 177.277 144.754C177.327 144.833 177.399 144.899 177.486 144.945C177.573 144.992 177.671 145.016 177.772 145.016C177.872 145.016 177.971 144.992 178.058 144.945C178.145 144.899 178.217 144.833 178.266 144.754C178.342 144.578 178.381 144.169 178.382 143.525V142.049H181.727V142.507C181.727 143.721 181.633 144.583 181.446 145.091C181.258 145.6 180.843 146.045 180.2 146.427C179.486 146.828 178.659 147.027 177.822 147C176.842 147 176.033 146.838 175.397 146.513C174.8 146.232 174.347 145.75 174.133 145.169C173.927 144.596 173.824 143.734 173.824 142.583V139.152C173.812 138.516 173.844 137.881 173.918 137.249C173.992 136.804 174.188 136.384 174.487 136.027C174.827 135.618 175.279 135.299 175.799 135.103C176.409 134.869 177.066 134.755 177.727 134.769C178.713 134.769 179.526 134.942 180.166 135.29C180.745 135.57 181.193 136.031 181.43 136.588C181.632 137.108 181.733 137.915 181.732 139.01V140.126Z" fill="black"/>
<path d="M188.715 135.015L190.63 146.755H187.21L187.032 144.645H185.835L185.634 146.755H182.173L183.88 135.015H188.715ZM186.936 142.564C186.767 141.235 186.596 139.591 186.426 137.632C186.085 139.88 185.871 141.524 185.783 142.564H186.936Z" fill="black"/>
<path d="M194.544 135.015V144.404H196.577V146.755H191.192V135.015H194.544Z" fill="black"/>
<path d="M204.358 138.569H201.258V137.699C201.258 137.293 201.219 137.033 201.139 136.923C201.094 136.866 201.034 136.822 200.965 136.793C200.895 136.765 200.818 136.753 200.742 136.76C200.651 136.756 200.56 136.775 200.479 136.815C200.399 136.855 200.332 136.914 200.285 136.986C200.167 137.196 200.113 137.432 200.13 137.668C200.112 137.971 200.173 138.275 200.308 138.552C200.419 138.75 200.734 138.991 201.253 139.27C202.743 140.076 203.681 140.738 204.068 141.255C204.454 141.773 204.648 142.606 204.648 143.757C204.648 144.594 204.54 145.211 204.326 145.606C204.11 146.003 203.696 146.335 203.08 146.604C202.407 146.883 201.674 147.02 200.935 147.005C200.14 147.026 199.352 146.867 198.641 146.542C198.008 146.232 197.593 145.838 197.396 145.361C197.199 144.883 197.101 144.204 197.102 143.322V142.554H200.209V143.982C200.209 144.422 200.253 144.705 200.34 144.83C200.392 144.896 200.463 144.949 200.544 144.982C200.626 145.015 200.716 145.028 200.805 145.02C200.904 145.024 201.002 145.005 201.09 144.962C201.178 144.92 201.251 144.857 201.303 144.779C201.426 144.561 201.482 144.315 201.465 144.07C201.465 143.379 201.362 142.926 201.155 142.713C200.949 142.5 200.427 142.145 199.59 141.648C199.013 141.317 198.46 140.951 197.937 140.552C197.639 140.287 197.409 139.965 197.264 139.609C197.071 139.116 196.981 138.595 196.999 138.072C196.999 137.173 197.124 136.517 197.376 136.1C197.655 135.662 198.084 135.319 198.597 135.126C199.238 134.874 199.932 134.752 200.63 134.768C201.393 134.749 202.151 134.88 202.853 135.153C203.465 135.41 203.87 135.734 204.068 136.127C204.266 136.52 204.362 137.179 204.358 138.104V138.569Z" fill="black"/>
</g>
<defs>
<clipPath id="clip0_151_727">
<rect width="175" height="127" fill="white" transform="translate(30 20)"/>
</clipPath>
</defs>
</svg>
