<svg width="54" height="53" viewBox="0 0 54 53" fill="none" xmlns="http://www.w3.org/2000/svg">
<path d="M46.2294 23.4765C46.2335 26.7776 45.5946 30.0422 44.3547 33.0555C44.2928 33.2124 44.2253 33.3693 44.1559 33.5242C43.2389 35.6267 42.0383 37.5686 40.5939 39.2858C40.0634 38.813 39.3678 38.1832 39.0941 37.9244C36.7488 35.7457 34.4823 33.4692 32.72 30.6689C32.5325 30.3815 32.2195 30.139 32.3713 29.7538C32.5457 29.3156 32.9637 29.3828 33.3087 29.3665C35.6034 29.2585 37.7143 28.6858 39.2272 26.5968C41.7244 23.1504 42.0056 17.3256 39.7559 13.6897C38.3949 11.4886 36.3439 10.2984 33.9667 10.0823C31.5033 9.85814 29.0174 9.96004 26.5409 9.91317C21.3891 9.8133 16.3142 9.02253 11.2861 7.8486C11.063 7.79561 10.1163 7.57143 9.03644 7.23718C11.553 4.3792 14.6928 2.25856 18.1645 1.07202C18.6201 0.917129 19.0794 0.77854 19.5481 0.664408C22.7253 -0.169409 26.035 -0.208889 29.2283 0.548938C32.4215 1.30677 35.4151 2.84216 37.9835 5.03955C40.552 7.23694 42.6286 10.0391 44.0568 13.2351C45.4851 16.431 46.2279 19.9376 46.2294 23.4908V23.4765Z" fill="black"/>
<path d="M39.0958 37.9203C39.3733 38.1791 40.0688 38.8089 40.5956 39.2817C38.6733 41.5917 36.3474 43.4627 33.7533 44.7857C31.1592 46.1086 28.3489 46.8571 25.486 46.9874C22.6232 47.1177 19.7651 46.6273 17.0784 45.5448C14.3916 44.4622 11.9299 42.8092 9.83671 40.682C7.74352 38.5548 6.0607 35.996 4.88631 33.1547C3.71192 30.3134 3.06945 27.2463 2.99635 24.1324C2.92324 21.0184 3.42096 17.9198 4.46049 15.017C5.50003 12.1143 7.06059 9.46545 9.05124 7.22495C10.133 7.56734 11.0797 7.79153 11.3009 7.83637C16.329 9.01029 21.4039 9.80107 26.5557 9.90093C29.0322 9.94781 31.5181 9.8459 33.9815 10.0701C36.3587 10.2861 38.4097 11.4764 39.7707 13.6775C42.0204 17.3134 41.7392 23.1382 39.2421 26.5846C37.7291 28.6736 35.6182 29.2463 33.3235 29.3543C32.971 29.3706 32.553 29.3034 32.3861 29.7415C32.2343 30.1267 32.5549 30.3693 32.7348 30.6566C34.484 33.4651 36.7449 35.7416 39.0958 37.9203Z" fill="black"/>
<path d="M52.5977 50.2119C51.8478 50.8111 51.0379 51.339 50.348 52.0054C48.9851 53.3098 47.5546 53.2099 46.0586 52.4008C42.4328 50.4382 39.272 47.752 36.1881 44.9456C35.8338 44.6215 35.5244 44.2119 35.082 44.0284C34.9826 43.9854 34.8787 43.9559 34.7727 43.9408C34.6061 43.6872 34.4232 43.4467 34.2252 43.2214C29.7945 38.701 25.6775 33.8303 21.9082 28.6492C20.5959 26.8475 19.3361 24.9969 18.4174 22.9018C18.0181 21.9928 18.3143 21.679 19.1673 21.7401C19.7785 21.7809 20.3915 21.7666 21.0027 21.791C24.9172 21.95 28.8322 22.1083 32.7479 22.2659C33.3104 22.2863 33.9159 22.3413 34.3883 21.8766C35.0764 21.2041 35.5507 18.8399 35.1476 17.8881C34.6489 16.7122 33.6591 16.5226 32.6205 16.5084C27.5849 16.4472 22.5531 16.3759 17.5213 16.3372C15.7441 16.3372 15.7047 16.3739 15.7965 18.3141C16.0159 23.0017 16.2709 27.6709 16.5127 32.3503C16.6514 34.9998 16.7395 37.6493 16.9458 40.2988C17.1126 42.4184 17.7556 43.2132 19.4729 42.7974C20.1816 42.6242 20.3184 43.0359 20.3297 43.7146C20.3428 44.436 19.7391 45.7771 19.4673 46.2622C19.4352 46.3198 19.3995 46.3749 19.3604 46.4272C17.8606 48.1677 16.0365 48.8729 13.9237 48.0577C11.7302 47.2017 10.8529 45.2044 10.521 42.8321C10.4667 42.4571 10.4029 41.7682 10.3448 41.0569C10.2604 40.0542 10.1892 39.0189 10.1742 38.7396C10.0336 36.245 9.87987 33.7504 9.74489 31.2558C9.45743 26.0438 9.17559 20.8223 8.89938 15.5912C8.86751 15.0287 8.84876 14.456 8.16823 14.3684C7.68642 14.291 6.25974 14.0627 4.9643 13.7814C4.20679 13.6472 3.4602 13.4482 2.73148 13.1863C2.10532 12.901 1.45854 12.6951 0.856745 12.3161C0.217459 11.9105 -0.0187584 11.3724 -1.09783e-05 10.598C0.043108 8.96751 0.0899765 7.31872 0.0243606 5.68215C-0.0412553 4.04558 0.701142 3.05711 2.00596 2.42327C3.93694 1.4878 5.99916 1.15967 8.06137 0.92733C11.8771 0.521244 15.7158 0.43063 19.5441 0.656267C19.0755 0.778551 18.6068 0.91714 18.1606 1.06388L17.6769 1.09649C14.951 1.24323 12.2289 1.4878 9.52367 1.9056C8.28259 2.09514 7.03589 2.35398 5.92417 3.05711C4.81245 3.76025 4.63997 4.68757 5.58671 5.59247C6.2485 6.23243 7.74829 6.81531 9.05123 7.22293C10.133 7.56532 11.0797 7.78951 11.3009 7.83435C16.329 9.00828 21.4039 9.79905 26.5557 9.89891C29.0322 9.94579 31.5181 9.84389 33.9815 10.0681C36.3587 10.2841 38.4097 11.4743 39.7707 13.6755C42.0204 17.3114 41.7392 23.1362 39.242 26.5826C37.7291 28.6716 35.6182 29.2443 33.3235 29.3523C32.971 29.3686 32.553 29.3013 32.3861 29.7395C32.2343 30.1247 32.5548 30.3672 32.7348 30.6546C34.4896 33.4549 36.7561 35.7314 39.1089 37.9101C39.3864 38.169 40.0819 38.7987 40.6087 39.2716C40.8956 39.5243 41.1355 39.7342 41.2405 39.8137C42.939 41.1181 44.6338 42.4265 46.3679 43.6697C47.4403 44.4422 48.5107 45.237 49.7143 45.7751C50.2205 45.9992 50.7717 46.199 51.2235 45.7119C51.6753 45.2248 51.5741 44.6337 51.321 44.0814C51.024 43.3734 50.6916 42.6835 50.3255 42.0148C48.6607 39.188 46.6754 36.6221 44.7013 34.0439C44.5532 33.8401 44.4332 33.5364 44.1614 33.514C44.2307 33.3591 44.2982 33.2022 44.3601 33.0453C46.1317 34.6452 47.4965 36.6425 48.9307 38.5684C50.1718 40.2335 51.3435 41.9577 52.5433 43.6636C53.1457 44.4937 53.5876 45.4476 53.8425 46.468C54.2437 48.1474 53.8931 49.1807 52.5977 50.2119Z" fill="#D41830"/>
</svg>
